<svg width="488" height="388" viewBox="0 0 488 388" fill="none" xmlns="http://www.w3.org/2000/svg">
<rect width="488" height="388" rx="48" fill="#D5EED6"/>
<g opacity="0.15">
<path d="M48 82.279C48 79.4713 48 76.6638 48 73.8566C48 73 48 73 48.8731 73C53.8956 73.0081 58.9172 73.0162 63.9379 73.0243C64.6173 73.0243 65.2975 72.9965 65.9769 73.0087C66.4868 73.0174 66.5676 73.1173 66.5685 73.6377C66.5685 75.4331 66.5685 77.2285 66.5685 79.0239C66.5685 82.9888 66.5685 86.954 66.5685 90.9195C66.5685 91.5033 66.4668 91.6084 65.8987 91.6084H48.7923C48.0539 91.6084 48.0009 91.5554 48.0009 90.8309L48 82.279Z" fill="#2DA833"/>
<path d="M78.7535 91.6085H70.4188C69.55 91.6085 69.4684 91.5355 69.4805 90.6746C69.5587 85.2771 69.5023 79.8805 69.5231 74.4838C69.5231 74.1529 69.4501 73.8288 69.5066 73.49C69.5561 73.1964 69.6803 73.0886 69.9618 73.1104C70.839 73.1876 71.7085 73.3352 72.562 73.5517C78.909 75.098 83.4299 78.891 86.2542 84.7411C87.1768 86.6523 87.6702 88.6965 87.9413 90.7953C88.0282 91.4964 87.9317 91.6059 87.2185 91.6067H78.7535V91.6085Z" fill="#2DA833"/>
<path d="M57.3085 94.5447C60.1736 94.5447 63.039 94.5447 65.9047 94.5447C66.5276 94.5447 66.5649 94.5812 66.5658 95.2093C66.5658 100.939 66.5658 106.67 66.5658 112.4C66.5658 112.972 66.5085 113.044 65.9386 112.981C63.1221 112.671 60.4707 111.832 58.0243 110.4C53.3444 107.657 50.2899 103.646 48.7618 98.454C48.4308 97.3299 48.2406 96.1805 48.0929 95.0208C48.039 94.6029 48.2293 94.536 48.5829 94.5369C51.4914 94.5447 54.3999 94.5447 57.3085 94.5447Z" fill="#2DA833"/>
<path d="M69.5213 112.18C69.5213 106.755 69.5213 101.33 69.5213 95.9043C69.5213 95.5733 69.4344 95.2475 69.51 94.9104C69.5621 94.6715 69.6707 94.5534 69.9131 94.5525C70.1555 94.5516 70.4048 94.5412 70.6507 94.5412L87.1455 94.5369H87.2758C87.9334 94.5464 88.0194 94.6237 87.9421 95.2675C87.5129 98.8198 86.2759 102.055 84.1327 104.933C80.7515 109.474 76.2402 112.093 70.6559 112.905C70.556 112.919 70.4587 112.952 70.3588 112.965C69.5899 113.072 69.4709 112.962 69.5213 112.18Z" fill="#2DA833"/>
</g>
<g opacity="0.15">
<path d="M396 322.279C396 319.471 396 316.664 396 313.857C396 313 396 313 396.873 313C401.896 313.008 406.917 313.016 411.938 313.024C412.617 313.024 413.298 312.997 413.977 313.009C414.487 313.017 414.568 313.117 414.568 313.638C414.568 315.433 414.568 317.228 414.568 319.024C414.568 322.989 414.568 326.954 414.568 330.92C414.568 331.503 414.467 331.608 413.899 331.608H396.792C396.054 331.608 396.001 331.555 396.001 330.831L396 322.279Z" fill="#2DA833"/>
<path d="M426.753 331.608H418.419C417.55 331.608 417.468 331.535 417.481 330.675C417.559 325.277 417.502 319.88 417.523 314.484C417.523 314.153 417.45 313.829 417.507 313.49C417.556 313.196 417.68 313.089 417.962 313.11C418.839 313.188 419.708 313.335 420.562 313.552C426.909 315.098 431.43 318.891 434.254 324.741C435.177 326.652 435.67 328.696 435.941 330.795C436.028 331.496 435.932 331.606 435.218 331.607H426.753V331.608Z" fill="#2DA833"/>
<path d="M405.309 334.545C408.174 334.545 411.039 334.545 413.905 334.545C414.528 334.545 414.565 334.581 414.566 335.209C414.566 340.939 414.566 346.67 414.566 352.4C414.566 352.972 414.509 353.044 413.939 352.981C411.122 352.671 408.471 351.832 406.024 350.4C401.344 347.657 398.29 343.646 396.762 338.454C396.431 337.33 396.241 336.181 396.093 335.021C396.039 334.603 396.229 334.536 396.583 334.537C399.491 334.545 402.4 334.545 405.309 334.545Z" fill="#2DA833"/>
<path d="M417.521 352.18C417.521 346.755 417.521 341.33 417.521 335.904C417.521 335.573 417.435 335.247 417.51 334.91C417.562 334.672 417.671 334.553 417.913 334.553C418.156 334.552 418.405 334.541 418.651 334.541L435.146 334.537H435.276C435.933 334.546 436.019 334.624 435.942 335.267C435.513 338.82 434.276 342.055 432.133 344.933C428.752 349.474 424.24 352.093 418.656 352.905C418.556 352.919 418.459 352.952 418.359 352.965C417.59 353.072 417.471 352.962 417.521 352.18Z" fill="#2DA833"/>
</g>
<g opacity="0.15">
<path d="M396 122.279C396 119.471 396 116.664 396 113.857C396 113 396 113 396.873 113C401.896 113.008 406.917 113.016 411.938 113.024C412.617 113.024 413.298 112.997 413.977 113.009C414.487 113.017 414.568 113.117 414.568 113.638C414.568 115.433 414.568 117.228 414.568 119.024C414.568 122.989 414.568 126.954 414.568 130.92C414.568 131.503 414.467 131.608 413.899 131.608H396.792C396.054 131.608 396.001 131.555 396.001 130.831L396 122.279Z" fill="#2DA833"/>
<path d="M426.753 131.608H418.419C417.55 131.608 417.468 131.535 417.481 130.675C417.559 125.277 417.502 119.88 417.523 114.484C417.523 114.153 417.45 113.829 417.507 113.49C417.556 113.196 417.68 113.089 417.962 113.11C418.839 113.188 419.708 113.335 420.562 113.552C426.909 115.098 431.43 118.891 434.254 124.741C435.177 126.652 435.67 128.696 435.941 130.795C436.028 131.496 435.932 131.606 435.218 131.607H426.753V131.608Z" fill="#2DA833"/>
<path d="M405.309 134.545C408.174 134.545 411.039 134.545 413.905 134.545C414.528 134.545 414.565 134.581 414.566 135.209C414.566 140.939 414.566 146.67 414.566 152.4C414.566 152.972 414.509 153.044 413.939 152.981C411.122 152.671 408.471 151.832 406.024 150.4C401.344 147.657 398.29 143.646 396.762 138.454C396.431 137.33 396.241 136.181 396.093 135.021C396.039 134.603 396.229 134.536 396.583 134.537C399.491 134.545 402.4 134.545 405.309 134.545Z" fill="#2DA833"/>
<path d="M417.521 152.18C417.521 146.755 417.521 141.33 417.521 135.904C417.521 135.573 417.435 135.247 417.51 134.91C417.562 134.672 417.671 134.553 417.913 134.553C418.156 134.552 418.405 134.541 418.651 134.541L435.146 134.537H435.276C435.933 134.546 436.019 134.624 435.942 135.267C435.513 138.82 434.276 142.055 432.133 144.933C428.752 149.474 424.24 152.093 418.656 152.905C418.556 152.919 418.459 152.952 418.359 152.965C417.59 153.072 417.471 152.962 417.521 152.18Z" fill="#2DA833"/>
</g>
<g opacity="0.15">
<path d="M129 321.279C129 318.471 129 315.664 129 312.857C129 312 129 312 129.873 312C134.896 312.008 139.917 312.016 144.938 312.024C145.617 312.024 146.298 311.997 146.977 312.009C147.487 312.017 147.568 312.117 147.568 312.638C147.568 314.433 147.568 316.228 147.568 318.024C147.568 321.989 147.568 325.954 147.568 329.92C147.568 330.503 147.467 330.608 146.899 330.608H129.792C129.054 330.608 129.001 330.555 129.001 329.831L129 321.279Z" fill="#2DA833"/>
<path d="M159.753 330.608H151.419C150.55 330.608 150.468 330.535 150.481 329.675C150.559 324.277 150.502 318.88 150.523 313.484C150.523 313.153 150.45 312.829 150.507 312.49C150.556 312.196 150.68 312.089 150.962 312.11C151.839 312.188 152.708 312.335 153.562 312.552C159.909 314.098 164.43 317.891 167.254 323.741C168.177 325.652 168.67 327.696 168.941 329.795C169.028 330.496 168.932 330.606 168.218 330.607H159.753V330.608Z" fill="#2DA833"/>
<path d="M138.308 333.545C141.174 333.545 144.039 333.545 146.905 333.545C147.528 333.545 147.565 333.581 147.566 334.209C147.566 339.939 147.566 345.67 147.566 351.4C147.566 351.972 147.508 352.044 146.939 351.981C144.122 351.671 141.471 350.832 139.024 349.4C134.344 346.657 131.29 342.646 129.762 337.454C129.431 336.33 129.241 335.181 129.093 334.021C129.039 333.603 129.229 333.536 129.583 333.537C132.491 333.545 135.4 333.545 138.308 333.545Z" fill="#2DA833"/>
<path d="M150.521 351.18C150.521 345.755 150.521 340.33 150.521 334.904C150.521 334.573 150.435 334.247 150.51 333.91C150.562 333.672 150.671 333.553 150.913 333.553C151.156 333.552 151.405 333.541 151.651 333.541L168.146 333.537H168.276C168.933 333.546 169.019 333.624 168.942 334.267C168.513 337.82 167.276 341.055 165.133 343.933C161.752 348.474 157.24 351.093 151.656 351.905C151.556 351.919 151.459 351.952 151.359 351.965C150.59 352.072 150.471 351.962 150.521 351.18Z" fill="#2DA833"/>
</g>
<g opacity="0.15">
<path d="M98 203.279C98 200.471 98 197.664 98 194.857C98 194 98 194 98.8731 194C103.896 194.008 108.917 194.016 113.938 194.024C114.617 194.024 115.298 193.997 115.977 194.009C116.487 194.017 116.568 194.117 116.568 194.638C116.568 196.433 116.568 198.228 116.568 200.024C116.568 203.989 116.568 207.954 116.568 211.92C116.568 212.503 116.467 212.608 115.899 212.608H98.7923C98.0539 212.608 98.0009 212.555 98.0009 211.831L98 203.279Z" fill="#2DA833"/>
<path d="M128.753 212.608H120.419C119.55 212.608 119.468 212.535 119.481 211.675C119.559 206.277 119.502 200.88 119.523 195.484C119.523 195.153 119.45 194.829 119.507 194.49C119.556 194.196 119.68 194.089 119.962 194.11C120.839 194.188 121.708 194.335 122.562 194.552C128.909 196.098 133.43 199.891 136.254 205.741C137.177 207.652 137.67 209.696 137.941 211.795C138.028 212.496 137.932 212.606 137.218 212.607H128.753V212.608Z" fill="#2DA833"/>
<path d="M107.308 215.545C110.174 215.545 113.039 215.545 115.905 215.545C116.528 215.545 116.565 215.581 116.566 216.209C116.566 221.939 116.566 227.67 116.566 233.4C116.566 233.972 116.508 234.044 115.939 233.981C113.122 233.671 110.471 232.832 108.024 231.4C103.344 228.657 100.29 224.646 98.7618 219.454C98.4308 218.33 98.2406 217.181 98.0929 216.021C98.039 215.603 98.2293 215.536 98.5829 215.537C101.491 215.545 104.4 215.545 107.308 215.545Z" fill="#2DA833"/>
<path d="M119.521 233.18C119.521 227.755 119.521 222.33 119.521 216.904C119.521 216.573 119.434 216.247 119.51 215.91C119.562 215.672 119.671 215.553 119.913 215.553C120.155 215.552 120.405 215.541 120.651 215.541L137.145 215.537H137.276C137.933 215.546 138.019 215.624 137.942 216.267C137.513 219.82 136.276 223.055 134.133 225.933C130.752 230.474 126.24 233.093 120.656 233.905C120.556 233.919 120.459 233.952 120.359 233.965C119.59 234.072 119.471 233.962 119.521 233.18Z" fill="#2DA833"/>
</g>
<g opacity="0.15">
<path d="M338 235.279C338 232.471 338 229.664 338 226.857C338 226 338 226 338.873 226C343.896 226.008 348.917 226.016 353.938 226.024C354.617 226.024 355.298 225.997 355.977 226.009C356.487 226.017 356.568 226.117 356.568 226.638C356.568 228.433 356.568 230.228 356.568 232.024C356.568 235.989 356.568 239.954 356.568 243.92C356.568 244.503 356.467 244.608 355.899 244.608H338.792C338.054 244.608 338.001 244.555 338.001 243.831L338 235.279Z" fill="#2DA833"/>
<path d="M368.753 244.608H360.419C359.55 244.608 359.468 244.535 359.481 243.675C359.559 238.277 359.502 232.88 359.523 227.484C359.523 227.153 359.45 226.829 359.507 226.49C359.556 226.196 359.68 226.089 359.962 226.11C360.839 226.188 361.708 226.335 362.562 226.552C368.909 228.098 373.43 231.891 376.254 237.741C377.177 239.652 377.67 241.696 377.941 243.795C378.028 244.496 377.932 244.606 377.218 244.607H368.753V244.608Z" fill="#2DA833"/>
<path d="M347.309 247.545C350.174 247.545 353.039 247.545 355.905 247.545C356.528 247.545 356.565 247.581 356.566 248.209C356.566 253.939 356.566 259.67 356.566 265.4C356.566 265.972 356.509 266.044 355.939 265.981C353.122 265.671 350.471 264.832 348.024 263.4C343.344 260.657 340.29 256.646 338.762 251.454C338.431 250.33 338.241 249.181 338.093 248.021C338.039 247.603 338.229 247.536 338.583 247.537C341.491 247.545 344.4 247.545 347.309 247.545Z" fill="#2DA833"/>
<path d="M359.521 265.18C359.521 259.755 359.521 254.33 359.521 248.904C359.521 248.573 359.435 248.247 359.51 247.91C359.562 247.672 359.671 247.553 359.913 247.553C360.156 247.552 360.405 247.541 360.651 247.541L377.146 247.537H377.276C377.933 247.546 378.019 247.624 377.942 248.267C377.513 251.82 376.276 255.055 374.133 257.933C370.752 262.474 366.24 265.093 360.656 265.905C360.556 265.919 360.459 265.952 360.359 265.965C359.59 266.072 359.471 265.962 359.521 265.18Z" fill="#2DA833"/>
</g>
<g opacity="0.15">
<path d="M347.308 0.544692C350.174 0.544692 353.039 0.544692 355.905 0.544692C356.528 0.544692 356.565 0.581178 356.566 1.20928C356.566 6.9395 356.566 12.6697 356.566 18.3999C356.566 18.9724 356.508 19.0437 355.939 18.9811C353.122 18.671 350.471 17.8318 348.024 16.4001C343.344 13.6575 340.29 9.64563 338.762 4.45403C338.431 3.32988 338.241 2.18053 338.093 1.02076C338.039 0.602897 338.229 0.536005 338.583 0.536874C341.491 0.544692 344.4 0.544692 347.308 0.544692Z" fill="#2DA833"/>
<path d="M359.521 18.1801C359.521 12.7551 359.521 7.32984 359.521 1.90426C359.521 1.57327 359.434 1.2475 359.51 0.910424C359.562 0.67152 359.671 0.553371 359.913 0.552502C360.155 0.551633 360.405 0.541209 360.651 0.541209L377.145 0.536865H377.276C377.933 0.546421 378.019 0.62374 377.942 1.26748C377.513 4.81976 376.276 8.05495 374.133 10.9331C370.752 15.474 366.24 18.0933 360.656 18.9047C360.556 18.9194 360.459 18.9516 360.359 18.9655C359.59 19.0723 359.471 18.962 359.521 18.1801Z" fill="#2DA833"/>
</g>
<g opacity="0.15">
<path d="M99.3085 0.544692C102.174 0.544692 105.039 0.544692 107.905 0.544692C108.528 0.544692 108.565 0.581178 108.566 1.20928C108.566 6.9395 108.566 12.6697 108.566 18.3999C108.566 18.9724 108.508 19.0437 107.939 18.9811C105.122 18.671 102.471 17.8318 100.024 16.4001C95.3444 13.6575 92.2899 9.64563 90.7618 4.45403C90.4308 3.32988 90.2406 2.18053 90.0929 1.02076C90.039 0.602897 90.2293 0.536005 90.5829 0.536874C93.4914 0.544692 96.3999 0.544692 99.3085 0.544692Z" fill="#2DA833"/>
<path d="M111.521 18.1801C111.521 12.7551 111.521 7.32984 111.521 1.90426C111.521 1.57327 111.434 1.2475 111.51 0.910424C111.562 0.67152 111.671 0.553371 111.913 0.552502C112.155 0.551633 112.405 0.541209 112.651 0.541209L129.145 0.536865H129.276C129.933 0.546421 130.019 0.62374 129.942 1.26748C129.513 4.81976 128.276 8.05495 126.133 10.9331C122.752 15.474 118.24 18.0933 112.656 18.9047C112.556 18.9194 112.459 18.9516 112.359 18.9655C111.59 19.0723 111.471 18.962 111.521 18.1801Z" fill="#2DA833"/>
</g>
<g opacity="0.15">
<path d="M68.9679 275.279C68.9679 272.471 68.9679 269.664 68.9679 266.857C68.9679 266 68.9679 266 68.0948 266C63.0723 266.008 58.0507 266.016 53.03 266.024C52.3506 266.024 51.6704 265.997 50.991 266.009C50.4811 266.017 50.4003 266.117 50.3994 266.638C50.3994 268.433 50.3994 270.228 50.3994 272.024C50.3994 275.989 50.3994 279.954 50.3994 283.92C50.3994 284.503 50.5011 284.608 51.0692 284.608H68.1756C68.914 284.608 68.967 284.555 68.967 283.831L68.9679 275.279Z" fill="#2DA833"/>
<path d="M38.2144 284.608H46.5491C47.4179 284.608 47.4995 284.535 47.4874 283.675C47.4092 278.277 47.4656 272.88 47.4448 267.484C47.4448 267.153 47.5178 266.829 47.4613 266.49C47.4118 266.196 47.2876 266.089 47.0061 266.11C46.1289 266.188 45.2594 266.335 44.4059 266.552C38.0589 268.098 33.538 271.891 30.7137 277.741C29.7911 279.652 29.2977 281.696 29.0266 283.795C28.9397 284.496 29.0362 284.606 29.7494 284.607H38.2144V284.608Z" fill="#2DA833"/>
<path d="M59.6594 287.545C56.7943 287.545 53.9289 287.545 51.0632 287.545C50.4403 287.545 50.403 287.581 50.4021 288.209C50.4021 293.939 50.4021 299.67 50.4021 305.4C50.4021 305.972 50.4594 306.044 51.0293 305.981C53.8458 305.671 56.4972 304.832 58.9436 303.4C63.6235 300.657 66.678 296.646 68.2061 291.454C68.5371 290.33 68.7273 289.181 68.875 288.021C68.9289 287.603 68.7386 287.536 68.385 287.537C65.4765 287.545 62.5679 287.545 59.6594 287.545Z" fill="#2DA833"/>
<path d="M47.4466 305.18C47.4466 299.755 47.4466 294.33 47.4466 288.904C47.4466 288.573 47.5335 288.247 47.4579 287.91C47.4058 287.672 47.2972 287.553 47.0548 287.553C46.8124 287.552 46.5631 287.541 46.3172 287.541L29.8224 287.537H29.6921C29.0345 287.546 28.9485 287.624 29.0258 288.267C29.455 291.82 30.692 295.055 32.8352 297.933C36.2164 302.474 40.7277 305.093 46.312 305.905C46.4119 305.919 46.5092 305.952 46.6091 305.965C47.378 306.072 47.497 305.962 47.4466 305.18Z" fill="#2DA833"/>
</g>
<g opacity="0.15">
<path d="M431.456 252.528C428.744 251.802 426.032 251.075 423.321 250.348C422.493 250.127 422.493 250.127 422.719 249.283C424.027 244.434 425.334 239.586 426.642 234.738C426.818 234.082 426.967 233.418 427.154 232.765C427.295 232.274 427.412 232.222 427.915 232.356C429.649 232.821 431.383 233.285 433.118 233.75C436.948 234.776 440.778 235.803 444.608 236.829C445.172 236.98 445.247 237.105 445.1 237.654L440.673 254.178C440.482 254.891 440.417 254.928 439.717 254.741L431.456 252.528Z" fill="#2DA833"/>
<path d="M448.427 225.237L446.27 233.288C446.045 234.127 445.954 234.187 445.125 233.953C439.932 232.48 434.704 231.138 429.497 229.721C429.177 229.635 428.845 229.622 428.533 229.48C428.262 229.356 428.19 229.208 428.284 228.942C428.586 228.115 428.953 227.313 429.383 226.544C432.52 220.814 437.353 217.429 443.735 216.215C445.82 215.818 447.922 215.871 450.02 216.152C450.719 216.25 450.8 216.371 450.616 217.06L448.426 225.237L448.427 225.237Z" fill="#2DA833"/>
<path d="M445.713 246.712C446.455 243.944 447.196 241.176 447.938 238.408C448.099 237.807 448.144 237.78 448.751 237.942C454.286 239.425 459.821 240.908 465.356 242.391C465.909 242.539 465.963 242.613 465.755 243.147C464.726 245.787 463.23 248.131 461.214 250.124C457.353 253.934 452.687 255.846 447.277 255.979C446.106 256.008 444.946 255.894 443.788 255.736C443.37 255.68 443.355 255.479 443.447 255.138C444.208 252.33 444.96 249.521 445.713 246.712Z" fill="#2DA833"/>
<path d="M465.909 239.479C460.668 238.075 455.428 236.671 450.187 235.267C449.868 235.181 449.53 235.181 449.224 235.02C449.007 234.908 448.921 234.773 448.983 234.538C449.045 234.304 449.099 234.061 449.163 233.823L453.428 217.889L453.462 217.763C453.641 217.131 453.738 217.068 454.34 217.309C457.66 218.643 460.465 220.675 462.69 223.49C466.201 227.931 467.564 232.967 466.902 238.571C466.89 238.671 466.896 238.774 466.884 238.874C466.788 239.644 466.651 239.73 465.909 239.479Z" fill="#2DA833"/>
</g>
<g opacity="0.15">
<path d="M206.277 52.3329C208.708 50.929 211.14 49.5252 213.571 48.1216C214.312 47.6934 214.312 47.6934 214.749 48.4495C217.253 52.8031 219.757 57.156 222.26 61.5082C222.6 62.0965 222.964 62.6717 223.293 63.2661C223.541 63.7121 223.495 63.832 223.045 64.093C221.49 64.9907 219.935 65.8884 218.38 66.7861C214.946 68.7685 211.512 70.7511 208.078 72.7339C207.572 73.0258 207.431 72.9903 207.146 72.4983L198.593 57.6837C198.224 57.0442 198.243 56.9718 198.871 56.6096L206.277 52.3329Z" fill="#2DA833"/>
<path d="M213.574 83.6308L209.407 76.4127C208.972 75.6604 208.995 75.5532 209.746 75.1332C214.46 72.5022 219.105 69.755 223.789 67.0747C224.076 66.9092 224.32 66.684 224.641 66.5635C224.921 66.4596 225.076 66.5133 225.198 66.7679C225.57 67.5662 225.876 68.393 226.116 69.2404C227.95 75.5102 226.926 81.3219 223.272 86.6929C222.078 88.4475 220.554 89.8969 218.872 91.1811C218.308 91.6069 218.165 91.5781 217.808 90.9608L213.575 83.6299L213.574 83.6308Z" fill="#2DA833"/>
<path d="M200.308 66.5271C201.741 69.0084 203.174 71.4899 204.607 73.9716C204.918 74.5111 204.905 74.5617 204.362 74.8765C199.399 77.7416 194.436 80.6067 189.474 83.4718C188.978 83.758 188.888 83.744 188.657 83.2192C187.517 80.625 186.918 77.9092 186.935 75.0747C186.97 69.6505 188.917 64.9993 192.649 61.0801C193.458 60.2314 194.358 59.492 195.288 58.7842C195.623 58.5286 195.776 58.6599 195.952 58.9666C197.4 61.4894 198.854 64.0082 200.308 66.5271Z" fill="#2DA833"/>
<path d="M191.142 85.9214C195.84 83.2089 200.539 80.4963 205.237 77.7835C205.524 77.618 205.763 77.3798 206.092 77.2768C206.325 77.2025 206.482 77.2374 206.604 77.4469C206.726 77.6564 206.86 77.8671 206.983 78.08L215.234 92.3627L215.299 92.4756C215.619 93.0499 215.595 93.163 214.999 93.4179C211.708 94.8224 208.288 95.3687 204.724 94.9517C199.101 94.294 194.577 91.6967 191.082 87.2662C191.019 87.1871 190.943 87.1189 190.881 87.0393C190.404 86.4269 190.44 86.2687 191.142 85.9214Z" fill="#2DA833"/>
</g>
<g opacity="0.15">
<path d="M268.272 89.55C266.287 87.5646 264.302 85.5794 262.317 83.5945C261.711 82.9888 261.711 82.9888 262.328 82.3714C265.886 78.8257 269.442 75.2806 272.998 71.7362C273.478 71.2558 273.94 70.7551 274.429 70.2834C274.795 69.9289 274.923 69.9424 275.292 70.3098C276.561 71.5793 277.831 72.8488 279.1 74.1184C281.904 76.922 284.708 79.7258 287.512 82.5299C287.925 82.9427 287.927 83.0889 287.525 83.4906L275.429 95.5867C274.907 96.1088 274.832 96.1088 274.32 95.5965L268.272 89.55Z" fill="#2DA833"/>
<path d="M296.615 74.4008L290.722 80.2943C290.107 80.9086 289.998 80.9148 289.398 80.2974C285.637 76.4255 281.781 72.6495 277.979 68.8187C277.745 68.5847 277.465 68.4072 277.265 68.1277C277.092 67.885 277.104 67.721 277.318 67.5373C277.993 66.9717 278.712 66.4612 279.469 66.0108C285.051 62.6162 290.929 62.1014 297.063 64.241C299.067 64.9401 300.861 66.0366 302.537 67.3291C303.094 67.7634 303.103 67.909 302.6 68.4139L296.614 74.3996L296.615 74.4008Z" fill="#2DA833"/>
<path d="M283.528 91.6412C285.554 89.6152 287.58 87.5891 289.606 85.5628C290.047 85.1223 290.099 85.1217 290.544 85.5652C294.595 89.6171 298.647 93.669 302.699 97.7208C303.104 98.1257 303.114 98.2166 302.667 98.5753C300.456 100.348 297.988 101.629 295.245 102.346C289.997 103.716 285 103.039 280.249 100.449C279.22 99.8881 278.272 99.2099 277.348 98.4942C277.014 98.2368 277.102 98.055 277.352 97.8056C279.414 95.7545 281.471 93.6978 283.528 91.6412Z" fill="#2DA833"/>
<path d="M304.634 95.4754C300.798 91.6393 296.961 87.8031 293.125 83.9666C292.891 83.7326 292.599 83.5636 292.414 83.2718C292.282 83.0661 292.275 82.9057 292.446 82.7337C292.617 82.5617 292.786 82.378 292.96 82.2042L304.62 70.5376L304.712 70.4454C305.184 69.9871 305.299 69.981 305.7 70.4909C307.908 73.3062 309.321 76.4685 309.841 80.0192C310.661 85.6209 309.323 90.663 305.948 95.1854C305.888 95.2665 305.842 95.3581 305.781 95.4385C305.313 96.0577 305.151 96.0639 304.634 95.4754Z" fill="#2DA833"/>
</g>
<mask id="mask0_305_25230" style="mask-type:alpha" maskUnits="userSpaceOnUse" x="0" y="0" width="488" height="388">
<rect width="488" height="388" rx="48" fill="#F0F9FA"/>
</mask>
<g mask="url(#mask0_305_25230)">
<g filter="url(#filter0_d_305_25230)">
<path d="M150 103C150 89.7452 160.745 79 174 79H319C332.255 79 343 89.7452 343 103V394H150V103Z" fill="white"/>
<path d="M151.25 103C151.25 90.4355 161.436 80.25 174 80.25H319C331.564 80.25 341.75 90.4355 341.75 103V392.75H151.25V103Z" stroke="black" stroke-width="2.5"/>
</g>
<path d="M222.773 122H217.743C217.623 122 217.553 122.07 217.553 122.19V122.8C217.553 122.92 217.623 122.99 217.743 122.99H219.733V128.81C219.733 128.93 219.803 129 219.923 129H220.593C220.723 129 220.783 128.93 220.783 128.81V122.99H222.773C222.893 122.99 222.963 122.92 222.963 122.8V122.19C222.963 122.07 222.893 122 222.773 122ZM225.253 129.11C226.673 129.11 227.743 128.04 227.743 126.65C227.743 125.27 226.673 124.2 225.253 124.2C223.833 124.2 222.763 125.27 222.763 126.65C222.763 128.04 223.833 129.11 225.253 129.11ZM225.253 128.2C224.363 128.2 223.783 127.53 223.783 126.65C223.783 125.77 224.363 125.1 225.253 125.1C226.143 125.1 226.723 125.77 226.723 126.65C226.723 127.53 226.143 128.2 225.253 128.2ZM231.982 128.09C231.762 128.17 231.542 128.2 231.302 128.2C230.662 128.2 230.372 127.96 230.372 127.25V125.16H231.962C232.082 125.16 232.152 125.1 232.152 124.97V124.5C232.152 124.38 232.082 124.31 231.962 124.31H230.372V123.19C230.372 123.07 230.302 123 230.182 123H229.562C229.442 123 229.372 123.07 229.372 123.19V124.31H228.502C228.382 124.31 228.312 124.38 228.312 124.5V124.97C228.312 125.1 228.382 125.16 228.502 125.16H229.372V127.33C229.372 128.55 229.982 129.11 231.112 129.11C231.452 129.11 231.772 129.06 232.062 128.94C232.162 128.89 232.202 128.82 232.202 128.72V128.22C232.202 128.08 232.112 128.03 231.982 128.09ZM237.669 124.31H237.059C236.939 124.31 236.869 124.38 236.869 124.5V125.02H236.849C236.569 124.5 235.949 124.2 235.249 124.2C233.939 124.2 232.929 125.26 232.929 126.65C232.929 128.05 233.939 129.11 235.249 129.11C235.939 129.11 236.569 128.81 236.849 128.29H236.869V128.81C236.869 128.93 236.939 129 237.059 129H237.669C237.789 129 237.859 128.93 237.859 128.81V124.5C237.859 124.38 237.789 124.31 237.669 124.31ZM233.949 126.65C233.949 125.77 234.529 125.1 235.419 125.1C236.309 125.1 236.889 125.77 236.889 126.65C236.889 127.53 236.309 128.2 235.419 128.2C234.529 128.2 233.949 127.53 233.949 126.65ZM239.532 129H240.152C240.272 129 240.342 128.93 240.342 128.81V122.19C240.342 122.07 240.272 122 240.152 122H239.532C239.412 122 239.342 122.07 239.342 122.19V128.81C239.342 128.93 239.412 129 239.532 129ZM246.053 129.11C247.343 129.11 248.073 128.56 248.073 127.65C248.073 126.86 247.603 126.43 246.643 126.29L245.823 126.17C245.163 126.07 244.973 125.9 244.973 125.62C244.973 125.24 245.273 124.99 245.983 124.99C246.573 124.99 246.923 125.18 247.013 125.57C247.043 125.69 247.103 125.75 247.223 125.75H247.833C247.953 125.75 248.033 125.67 248.013 125.55C247.873 124.67 247.183 124.2 245.993 124.2C244.663 124.2 243.993 124.79 243.993 125.63C243.993 126.34 244.433 126.82 245.423 126.96L246.253 127.08C246.883 127.18 247.093 127.34 247.093 127.68C247.093 128.09 246.743 128.33 246.073 128.33C245.503 128.33 245.123 128.13 245.013 127.81C244.973 127.71 244.913 127.65 244.803 127.65H244.173C244.053 127.65 243.963 127.73 243.993 127.85C244.153 128.64 244.823 129.11 246.053 129.11ZM253.723 124.31H253.113C252.993 124.31 252.923 124.38 252.923 124.5V125.02H252.903C252.623 124.5 252.003 124.2 251.303 124.2C249.993 124.2 248.983 125.26 248.983 126.65C248.983 128.05 249.993 129.11 251.303 129.11C251.993 129.11 252.623 128.81 252.903 128.29H252.923V128.81C252.923 128.93 252.993 129 253.113 129H253.723C253.843 129 253.913 128.93 253.913 128.81V124.5C253.913 124.38 253.843 124.31 253.723 124.31ZM250.003 126.65C250.003 125.77 250.583 125.1 251.473 125.1C252.363 125.1 252.943 125.77 252.943 126.65C252.943 127.53 252.363 128.2 251.473 128.2C250.583 128.2 250.003 127.53 250.003 126.65ZM257.026 129H257.626C257.736 129 257.816 128.95 257.856 128.86L259.746 124.53C259.796 124.39 259.736 124.31 259.596 124.31H258.936C258.836 124.31 258.746 124.35 258.716 124.45L257.336 127.79H257.316L255.946 124.45C255.906 124.35 255.826 124.31 255.716 124.31H255.056C254.916 124.31 254.856 124.39 254.906 124.53L256.796 128.86C256.836 128.95 256.926 129 257.026 129ZM262.742 124.2C261.282 124.2 260.302 125.22 260.302 126.66C260.302 128.1 261.272 129.11 262.772 129.11C263.952 129.11 264.752 128.5 265.002 127.71C265.032 127.62 264.952 127.56 264.822 127.56H264.242C264.142 127.56 264.072 127.61 264.022 127.71C263.852 128.05 263.402 128.28 262.782 128.28C261.942 128.28 261.412 127.84 261.312 126.97H264.902C265.032 126.97 265.132 126.91 265.132 126.74V126.63C265.132 125.16 264.152 124.2 262.742 124.2ZM262.742 125.02C263.502 125.02 263.992 125.42 264.112 126.24H261.322C261.452 125.44 261.972 125.02 262.742 125.02ZM270.784 122H270.164C270.044 122 269.974 122.07 269.974 122.19V125.02H269.934C269.664 124.5 269.034 124.2 268.354 124.2C267.064 124.2 266.044 125.26 266.044 126.65C266.044 128.05 267.064 129.11 268.364 129.11C269.054 129.11 269.684 128.81 269.964 128.29H269.994V128.81C269.994 128.93 270.064 129 270.184 129H270.784C270.914 129 270.974 128.93 270.974 128.81V122.19C270.974 122.07 270.914 122 270.784 122ZM267.064 126.65C267.064 125.77 267.644 125.1 268.534 125.1C269.424 125.1 270.004 125.77 270.004 126.65C270.004 127.53 269.424 128.2 268.534 128.2C267.644 128.2 267.064 127.53 267.064 126.65Z" fill="#1F2937"/>
<path d="M222.8 150.22C222.8 148.12 221.64 147.04 219.2 146.66L218.02 146.48C216.68 146.28 216.24 146.1 216.24 145.62C216.24 145.08 216.62 144.76 217.72 144.76C218.68 144.76 219.08 145.02 219.18 145.52C219.22 145.7 219.3 145.8 219.48 145.8H222.38C222.58 145.8 222.68 145.7 222.66 145.5C222.52 143.7 221.4 142.4 219.24 142V140.8C219.24 140.62 219.12 140.5 218.94 140.5H216.64C216.46 140.5 216.34 140.62 216.34 140.8V141.96C214 142.34 212.8 143.74 212.8 145.62C212.8 147.52 213.88 148.78 216.54 149.14L217.72 149.3C218.82 149.44 219.34 149.78 219.34 150.34C219.34 150.9 218.96 151.22 217.84 151.22C216.88 151.22 216.44 150.98 216.3 150.38C216.24 150.2 216.14 150.1 215.96 150.1H213.1C212.9 150.1 212.78 150.22 212.8 150.42C212.98 152.28 214.14 153.58 216.34 154V155.2C216.34 155.38 216.46 155.5 216.64 155.5H218.94C219.12 155.5 219.24 155.38 219.24 155.2V154.02C221.52 153.66 222.8 152.34 222.8 150.22ZM233.122 142.08C232.182 141.22 230.902 140.72 229.222 140.72C225.842 140.72 223.802 142.76 223.802 145.54C223.802 148.3 225.802 150.24 228.642 150.24C229.702 150.24 230.542 149.96 231.202 149.4H231.262C231.042 151.36 230.282 152.04 229.142 152.04C228.362 152.04 227.902 151.74 227.722 151.26C227.642 151.08 227.562 151 227.382 151H224.282C224.082 151 223.982 151.12 224.002 151.32C224.422 153.92 226.202 155.28 229.062 155.28C232.902 155.28 235.002 152.8 235.002 147.76C235.002 144.96 234.382 143.22 233.122 142.08ZM229.282 147.28C228.222 147.28 227.522 146.6 227.522 145.56C227.522 144.54 228.202 143.86 229.282 143.86C230.342 143.86 231.042 144.52 231.042 145.56C231.042 146.6 230.362 147.28 229.282 147.28ZM235.279 158.18H237.539C237.719 158.18 237.819 158.08 237.859 157.92L239.579 151.56C239.639 151.34 239.519 151.22 239.319 151.22H236.439C236.259 151.22 236.139 151.32 236.119 151.5L235.019 157.86C234.979 158.08 235.079 158.18 235.279 158.18ZM246.487 155.28C250.247 155.28 252.547 152.6 252.547 148C252.547 143.4 250.247 140.72 246.487 140.72C242.727 140.72 240.427 143.4 240.427 148C240.427 152.6 242.727 155.28 246.487 155.28ZM246.487 151.84C245.107 151.84 244.227 150.7 244.227 148C244.227 145.3 245.107 144.16 246.487 144.16C247.867 144.16 248.747 145.3 248.747 148C248.747 150.7 247.867 151.84 246.487 151.84ZM263.54 151.62H257.46C257.64 151.02 258.06 150.72 258.94 150.3L260.74 149.48C263.08 148.42 264.02 147.1 264.02 145.16C264.02 142.4 262.14 140.72 258.96 140.72C255.62 140.72 253.72 142.56 253.6 145.54C253.6 145.74 253.72 145.84 253.9 145.84H257.12C257.3 145.84 257.4 145.74 257.42 145.54C257.54 144.62 258.12 144.14 259.02 144.14C259.84 144.14 260.3 144.54 260.3 145.2C260.3 145.82 259.92 146.28 258.94 146.74L257.14 147.56C254.3 148.86 253.56 150.16 253.56 153.74V154.7C253.56 154.88 253.68 155 253.86 155H263.54C263.72 155 263.84 154.88 263.84 154.7V151.92C263.84 151.74 263.72 151.62 263.54 151.62ZM275.94 149.38H274.9V141.3C274.9 141.12 274.78 141 274.6 141H270.98C270.82 141 270.68 141.06 270.6 141.18L264.78 149.38C264.7 149.5 264.66 149.6 264.66 149.74V152.28C264.66 152.46 264.78 152.58 264.96 152.58H271.34V154.7C271.34 154.88 271.46 155 271.64 155H274.6C274.78 155 274.9 154.88 274.9 154.7V152.58H275.94C276.12 152.58 276.24 152.46 276.24 152.28V149.68C276.24 149.5 276.12 149.38 275.94 149.38ZM268.56 149.38L271.28 145.56H271.34V149.38H268.56Z" fill="#111827"/>
<path d="M233.01 168.44H231.42V166.73C231.42 166.6 231.35 166.53 231.22 166.53H230.78C230.65 166.53 230.58 166.6 230.58 166.73V168.44H228.99C228.86 168.44 228.79 168.5 228.79 168.63V169.03C228.79 169.16 228.86 169.22 228.99 169.22H230.58V170.93C230.58 171.06 230.65 171.13 230.78 171.13H231.22C231.35 171.13 231.42 171.06 231.42 170.93V169.22H233.01C233.14 169.22 233.21 169.16 233.21 169.03V168.63C233.21 168.5 233.14 168.44 233.01 168.44ZM239.046 169.79C239.046 168.96 238.546 168.37 237.466 168.16L237.116 168.09V166.21C237.676 166.29 237.986 166.57 238.066 167.06C238.086 167.19 238.156 167.25 238.276 167.25H238.746C238.876 167.25 238.946 167.17 238.936 167.04C238.806 166.1 238.186 165.56 237.146 165.45V164.98C237.146 164.86 237.076 164.79 236.946 164.79H236.656C236.526 164.79 236.456 164.86 236.456 164.98V165.44C235.236 165.53 234.596 166.19 234.596 167.11C234.596 167.94 235.116 168.53 236.326 168.77L236.486 168.8V170.78C235.916 170.7 235.566 170.42 235.446 169.97C235.416 169.85 235.356 169.79 235.236 169.79H234.746C234.616 169.79 234.536 169.87 234.566 170C234.716 170.88 235.396 171.43 236.456 171.54V172.02C236.456 172.14 236.526 172.21 236.656 172.21H236.946C237.076 172.21 237.146 172.14 237.146 172.02V171.55C238.316 171.46 239.046 170.82 239.046 169.79ZM235.456 167.09C235.456 166.58 235.776 166.26 236.486 166.2V167.96C235.746 167.79 235.456 167.56 235.456 167.09ZM237.116 170.79V168.92C237.816 169.06 238.186 169.36 238.186 169.84C238.186 170.36 237.806 170.71 237.116 170.79ZM242.992 167.36C242.192 167.36 241.492 167.7 241.102 168.32H241.082C241.172 166.5 241.842 165.72 242.982 165.72C243.662 165.72 244.102 166 244.252 166.47C244.292 166.57 244.352 166.63 244.472 166.63H244.992C245.122 166.63 245.202 166.55 245.172 166.42C244.952 165.49 244.132 164.9 242.972 164.9C241.212 164.9 240.172 166.28 240.172 168.71C240.172 169.98 240.452 170.85 240.992 171.4C241.452 171.86 242.092 172.1 242.832 172.1C244.352 172.1 245.382 171.1 245.382 169.72C245.382 168.36 244.372 167.36 242.992 167.36ZM242.832 171.28C241.852 171.28 241.202 170.67 241.202 169.72C241.202 168.77 241.852 168.17 242.832 168.17C243.812 168.17 244.462 168.77 244.462 169.72C244.462 170.67 243.812 171.28 242.832 171.28ZM250.941 171.17H247.351C247.381 170.56 247.721 170.14 248.791 169.53L249.491 169.13C250.651 168.47 251.111 167.78 251.111 166.92C251.111 165.71 250.191 164.9 248.841 164.9C247.491 164.9 246.561 165.71 246.451 167.04C246.441 167.17 246.521 167.24 246.641 167.24H247.171C247.291 167.24 247.361 167.17 247.371 167.04C247.461 166.23 248.011 165.72 248.861 165.72C249.701 165.72 250.201 166.2 250.201 166.9C250.201 167.51 249.821 168.02 248.891 168.55L248.191 168.95C246.881 169.69 246.411 170.49 246.411 171.51V171.8C246.411 171.93 246.481 172 246.601 172H250.941C251.061 172 251.131 171.93 251.131 171.8V171.36C251.131 171.23 251.061 171.17 250.941 171.17ZM254.993 172.1C256.643 172.1 257.773 170.76 257.773 168.5C257.773 166.24 256.643 164.9 254.993 164.9C253.353 164.9 252.223 166.24 252.223 168.5C252.223 170.76 253.353 172.1 254.993 172.1ZM254.993 171.28C253.813 171.28 253.143 170.33 253.143 168.5C253.143 166.67 253.813 165.72 254.993 165.72C256.173 165.72 256.853 166.67 256.853 168.5C256.853 170.33 256.173 171.28 254.993 171.28Z" fill="#111827"/>
<rect x="227" y="91" width="24" height="4" rx="2" fill="#1F2937"/>
<rect x="256" y="91" width="4" height="4" rx="2" fill="#1F2937"/>
<g filter="url(#filter1_dd_305_25230)">
<rect x="119" y="187" width="120" height="140" rx="12" fill="white"/>
<path d="M202.5 232C202.5 245.255 191.755 256 178.5 256C165.245 256 154.5 245.255 154.5 232C154.5 218.745 165.245 208 178.5 208C191.755 208 202.5 218.745 202.5 232ZM159.3 232C159.3 242.604 167.896 251.2 178.5 251.2C189.104 251.2 197.7 242.604 197.7 232C197.7 221.396 189.104 212.8 178.5 212.8C167.896 212.8 159.3 221.396 159.3 232Z" fill="#F3F4F6"/>
<path d="M156.9 232C155.575 232 154.488 230.923 154.62 229.604C155.043 225.388 156.576 221.344 159.084 217.893C162.063 213.793 166.263 210.741 171.084 209.175C175.904 207.608 181.096 207.608 185.916 209.175C189.973 210.493 193.591 212.863 196.411 216.025C197.293 217.014 197.047 218.525 195.975 219.304C194.902 220.083 193.412 219.833 192.505 218.866C190.299 216.513 187.525 214.744 184.433 213.74C180.577 212.487 176.423 212.487 172.567 213.74C168.711 214.993 165.35 217.434 162.967 220.715C161.056 223.345 159.852 226.406 159.45 229.606C159.285 230.921 158.225 232 156.9 232Z" fill="#FF6D3B"/>
<path d="M150.636 268.6H144.492C144.36 268.6 144.276 268.684 144.276 268.816V269.884C144.276 270.016 144.36 270.1 144.492 270.1H146.76V276.784C146.76 276.916 146.844 277 146.976 277H148.152C148.284 277 148.368 276.916 148.368 276.784V270.1H150.636C150.78 270.1 150.852 270.016 150.852 269.884V268.816C150.852 268.684 150.78 268.6 150.636 268.6ZM154.766 271.204C154.67 271.192 154.562 271.18 154.442 271.18C153.686 271.18 153.014 271.564 152.702 272.32H152.678V271.504C152.678 271.372 152.594 271.288 152.462 271.288H151.406C151.274 271.288 151.202 271.372 151.202 271.504V276.784C151.202 276.916 151.274 277 151.406 277H152.498C152.63 277 152.714 276.916 152.714 276.784V274.636C152.714 273.256 153.314 272.632 154.37 272.632C154.49 272.632 154.61 272.632 154.718 272.644C154.862 272.656 154.946 272.596 154.946 272.452V271.444C154.946 271.336 154.898 271.24 154.766 271.204ZM161.434 271.288H160.378C160.246 271.288 160.162 271.372 160.162 271.504V272.068H160.126C159.802 271.468 159.106 271.144 158.326 271.144C156.742 271.144 155.554 272.428 155.554 274.144C155.554 275.86 156.742 277.144 158.326 277.144C159.106 277.144 159.802 276.82 160.126 276.22H160.162V276.784C160.162 276.916 160.246 277 160.378 277H161.434C161.566 277 161.65 276.916 161.65 276.784V271.504C161.65 271.372 161.566 271.288 161.434 271.288ZM157.102 274.144C157.102 273.208 157.702 272.524 158.65 272.524C159.586 272.524 160.186 273.208 160.186 274.144C160.186 275.08 159.586 275.776 158.65 275.776C157.702 275.776 157.102 275.08 157.102 274.144ZM165.158 277H166.286C166.394 277 166.502 276.94 166.538 276.832L168.782 271.528C168.842 271.384 168.77 271.288 168.614 271.288H167.438C167.318 271.288 167.234 271.336 167.186 271.456L165.734 275.212H165.71L164.258 271.456C164.222 271.336 164.126 271.288 164.018 271.288H162.83C162.674 271.288 162.602 271.384 162.662 271.528L164.906 276.832C164.942 276.94 165.038 277 165.158 277ZM172.313 271.144C170.513 271.144 169.277 272.416 169.277 274.156C169.277 275.896 170.489 277.144 172.349 277.144C173.825 277.144 174.809 276.376 175.121 275.368C175.157 275.26 175.061 275.188 174.917 275.188H173.909C173.789 275.188 173.717 275.248 173.657 275.356C173.477 275.704 173.009 275.944 172.373 275.944C171.473 275.944 170.921 275.5 170.789 274.588H174.989C175.157 274.588 175.277 274.504 175.277 274.288V274.132C175.277 272.344 174.053 271.144 172.313 271.144ZM172.313 272.332C173.105 272.332 173.609 272.716 173.753 273.592H170.813C170.969 272.752 171.509 272.332 172.313 272.332ZM176.754 277H177.846C177.978 277 178.062 276.916 178.062 276.784V268.816C178.062 268.684 177.978 268.6 177.846 268.6H176.754C176.622 268.6 176.55 268.684 176.55 268.816V276.784C176.55 276.916 176.622 277 176.754 277ZM185.851 271.144C185.071 271.144 184.375 271.468 184.051 272.068H183.991V271.504C183.991 271.372 183.919 271.288 183.787 271.288H182.719C182.587 271.288 182.515 271.372 182.515 271.504V279.376C182.515 279.508 182.587 279.592 182.719 279.592H183.811C183.943 279.592 184.027 279.508 184.027 279.376V276.22H184.063C184.399 276.82 185.083 277.144 185.875 277.144C187.423 277.144 188.611 275.86 188.611 274.144C188.611 272.428 187.423 271.144 185.851 271.144ZM185.527 275.776C184.579 275.776 183.979 275.08 183.979 274.144C183.979 273.208 184.579 272.524 185.527 272.524C186.463 272.524 187.075 273.208 187.075 274.144C187.075 275.08 186.463 275.776 185.527 275.776ZM190.101 277H191.193C191.325 277 191.409 276.916 191.409 276.784V268.816C191.409 268.684 191.325 268.6 191.193 268.6H190.101C189.969 268.6 189.897 268.684 189.897 268.816V276.784C189.897 276.916 189.969 277 190.101 277ZM198.548 271.288H197.492C197.36 271.288 197.276 271.372 197.276 271.504V272.068H197.24C196.916 271.468 196.22 271.144 195.44 271.144C193.856 271.144 192.668 272.428 192.668 274.144C192.668 275.86 193.856 277.144 195.44 277.144C196.22 277.144 196.916 276.82 197.24 276.22H197.276V276.784C197.276 276.916 197.36 277 197.492 277H198.548C198.68 277 198.764 276.916 198.764 276.784V271.504C198.764 271.372 198.68 271.288 198.548 271.288ZM194.216 274.144C194.216 273.208 194.816 272.524 195.764 272.524C196.7 272.524 197.3 273.208 197.3 274.144C197.3 275.08 196.7 275.776 195.764 275.776C194.816 275.776 194.216 275.08 194.216 274.144ZM203.699 271.144C202.847 271.144 202.175 271.492 201.851 272.104H201.815V271.504C201.815 271.372 201.743 271.288 201.611 271.288H200.543C200.411 271.288 200.339 271.372 200.339 271.504V276.784C200.339 276.916 200.411 277 200.543 277H201.635C201.767 277 201.851 276.916 201.851 276.784V273.94C201.851 273.052 202.367 272.536 203.195 272.536C203.975 272.536 204.395 272.98 204.395 273.916V276.784C204.395 276.916 204.467 277 204.611 277H205.691C205.823 277 205.907 276.916 205.907 276.784V273.532C205.907 272.032 205.067 271.144 203.699 271.144ZM209.673 277.144C211.305 277.144 212.217 276.448 212.217 275.296C212.217 274.312 211.605 273.76 210.429 273.604L209.541 273.484C208.797 273.388 208.581 273.208 208.581 272.92C208.581 272.536 208.905 272.284 209.613 272.284C210.201 272.284 210.561 272.488 210.669 272.872C210.705 273.004 210.765 273.064 210.897 273.064H211.953C212.085 273.064 212.169 272.98 212.145 272.836C211.977 271.732 211.149 271.144 209.625 271.144C207.933 271.144 207.093 271.888 207.093 272.944C207.093 273.844 207.669 274.456 208.893 274.612L209.793 274.732C210.501 274.828 210.729 274.996 210.729 275.356C210.729 275.776 210.381 276.016 209.685 276.016C209.109 276.016 208.725 275.812 208.605 275.488C208.557 275.368 208.497 275.296 208.377 275.296H207.297C207.153 275.296 207.057 275.392 207.093 275.524C207.273 276.532 208.125 277.144 209.673 277.144Z" fill="black"/>
<path d="M164.271 292.252C164.271 291.148 163.623 290.464 162.255 290.224L161.919 290.164V288.436C162.363 288.532 162.603 288.772 162.675 289.18C162.699 289.312 162.759 289.372 162.891 289.372H163.959C164.091 289.372 164.175 289.3 164.151 289.156C164.043 288.052 163.323 287.332 162.051 287.164V286.54C162.051 286.408 161.967 286.324 161.835 286.324H161.043C160.911 286.324 160.839 286.408 160.839 286.54V287.14C159.399 287.308 158.643 288.112 158.643 289.24C158.643 290.284 159.279 291.016 160.791 291.268L160.959 291.304V293.152C160.503 293.056 160.227 292.816 160.131 292.42C160.095 292.3 160.023 292.228 159.891 292.228H158.823C158.691 292.228 158.607 292.312 158.631 292.456C158.775 293.536 159.531 294.256 160.839 294.436V295.06C160.839 295.192 160.911 295.276 161.043 295.276H161.835C161.967 295.276 162.051 295.192 162.051 295.06V294.436C163.455 294.28 164.271 293.512 164.271 292.252ZM160.119 289.228C160.119 288.784 160.371 288.508 160.959 288.412V289.984C160.347 289.816 160.119 289.612 160.119 289.228ZM161.919 293.164V291.484C162.507 291.628 162.795 291.904 162.795 292.324C162.795 292.78 162.507 293.068 161.919 293.164ZM168.451 295.144C170.383 295.144 171.523 294.076 171.523 292.684C171.523 291.712 170.959 290.956 169.951 290.716V290.692C170.887 290.404 171.355 289.684 171.355 288.784C171.355 287.428 170.251 286.456 168.463 286.456C166.699 286.456 165.595 287.404 165.475 289.036C165.463 289.192 165.547 289.264 165.679 289.264H166.855C166.987 289.264 167.059 289.192 167.071 289.06C167.179 288.316 167.659 287.896 168.463 287.896C169.267 287.896 169.771 288.304 169.771 288.928C169.771 289.576 169.231 290.02 168.343 290.02H167.959C167.827 290.02 167.743 290.104 167.743 290.236V291.232C167.743 291.364 167.827 291.448 167.959 291.448H168.379C169.375 291.448 169.915 291.88 169.915 292.552C169.915 293.224 169.363 293.704 168.463 293.704C167.635 293.704 167.107 293.284 166.987 292.552C166.963 292.42 166.891 292.348 166.759 292.348H165.595C165.451 292.348 165.367 292.42 165.379 292.564C165.511 294.208 166.627 295.144 168.451 295.144ZM172.624 296.848H173.404C173.536 296.848 173.608 296.776 173.632 296.656L174.496 293.404C174.532 293.26 174.46 293.176 174.316 293.176H173.236C173.116 293.176 173.032 293.236 173.02 293.368L172.432 296.608C172.408 296.752 172.48 296.848 172.624 296.848ZM179.076 289.384C178.476 289.384 177.924 289.528 177.468 289.804L177.684 288.016H181.248C181.38 288.016 181.464 287.944 181.464 287.812V286.816C181.464 286.684 181.38 286.6 181.248 286.6H176.628C176.496 286.6 176.424 286.66 176.4 286.804L175.836 291.196C175.824 291.352 175.896 291.424 176.04 291.424H177.264C177.372 291.424 177.444 291.376 177.516 291.292C177.828 290.932 178.332 290.704 178.908 290.704C179.796 290.704 180.36 291.268 180.36 292.156C180.36 293.08 179.736 293.716 178.8 293.716C178.032 293.716 177.456 293.296 177.312 292.708C177.276 292.576 177.216 292.516 177.084 292.516H175.932C175.788 292.516 175.716 292.6 175.728 292.732C175.884 294.196 177.108 295.144 178.788 295.144C180.684 295.144 181.944 293.932 181.944 292.18C181.944 290.488 180.744 289.384 179.076 289.384ZM186.535 289.444C185.731 289.444 185.023 289.732 184.579 290.308H184.543C184.675 288.556 185.335 287.848 186.403 287.848C187.063 287.848 187.483 288.124 187.639 288.568C187.687 288.688 187.759 288.748 187.879 288.748H189.031C189.163 288.748 189.247 288.664 189.223 288.52C188.947 287.212 187.939 286.456 186.415 286.456C184.219 286.456 182.959 288.04 182.959 291.004C182.959 292.6 183.319 293.656 184.003 294.316C184.567 294.856 185.335 295.144 186.271 295.144C188.191 295.144 189.415 293.944 189.415 292.276C189.415 290.632 188.215 289.444 186.535 289.444ZM186.259 293.776C185.311 293.776 184.687 293.188 184.687 292.264C184.687 291.352 185.311 290.764 186.259 290.764C187.207 290.764 187.831 291.352 187.831 292.264C187.831 293.188 187.207 293.776 186.259 293.776ZM193.904 295.144C196.004 295.144 197.372 293.536 197.372 290.8C197.372 288.064 196.004 286.456 193.904 286.456C191.816 286.456 190.448 288.064 190.448 290.8C190.448 293.536 191.816 295.144 193.904 295.144ZM193.904 293.692C192.74 293.692 192.056 292.756 192.056 290.8C192.056 288.844 192.74 287.908 193.904 287.908C195.068 287.908 195.764 288.844 195.764 290.8C195.764 292.756 195.068 293.692 193.904 293.692Z" fill="#FF6D3B"/>
<path d="M163.638 305.4H163.19C163.126 305.4 163.062 305.416 162.998 305.456L161.862 306.112C161.79 306.144 161.758 306.208 161.758 306.288V306.792C161.758 306.912 161.838 306.96 161.942 306.896L162.966 306.312V310.848C162.966 310.944 163.014 311 163.118 311H163.638C163.734 311 163.79 310.944 163.79 310.848V305.552C163.79 305.456 163.734 305.4 163.638 305.4ZM167.315 307.288C166.707 307.288 166.179 307.536 165.867 307.992H165.851C165.931 306.64 166.427 306.064 167.275 306.064C167.779 306.064 168.107 306.272 168.227 306.624C168.251 306.704 168.299 306.752 168.395 306.752H168.931C169.035 306.752 169.091 306.688 169.067 306.584C168.891 305.8 168.227 305.312 167.267 305.312C165.843 305.312 165.011 306.4 165.011 308.36C165.011 309.392 165.243 310.088 165.675 310.528C166.051 310.896 166.562 311.088 167.163 311.088C168.403 311.088 169.227 310.288 169.227 309.176C169.227 308.088 168.419 307.288 167.315 307.288ZM167.163 310.344C166.435 310.344 165.947 309.888 165.947 309.176C165.947 308.464 166.435 308.016 167.163 308.016C167.899 308.016 168.379 308.472 168.379 309.176C168.379 309.888 167.899 310.344 167.163 310.344ZM171.299 308.2C172.115 308.2 172.747 307.576 172.747 306.752C172.747 305.936 172.115 305.312 171.299 305.312C170.483 305.312 169.859 305.936 169.859 306.752C169.859 307.576 170.483 308.2 171.299 308.2ZM171.003 311H171.435C171.515 311 171.571 310.968 171.619 310.904L175.123 305.584C175.195 305.48 175.147 305.4 175.027 305.4H174.595C174.515 305.4 174.459 305.432 174.411 305.496L170.899 310.816C170.835 310.92 170.883 311 171.003 311ZM171.299 307.568C170.843 307.568 170.531 307.248 170.531 306.752C170.531 306.264 170.843 305.944 171.299 305.944C171.763 305.944 172.067 306.264 172.067 306.752C172.067 307.248 171.763 307.568 171.299 307.568ZM174.731 311.088C175.547 311.088 176.171 310.464 176.171 309.648C176.171 308.824 175.547 308.2 174.731 308.2C173.907 308.2 173.283 308.824 173.283 309.648C173.283 310.464 173.907 311.088 174.731 311.088ZM174.731 310.456C174.267 310.456 173.963 310.136 173.963 309.648C173.963 309.152 174.267 308.832 174.731 308.832C175.187 308.832 175.499 309.152 175.499 309.648C175.499 310.136 175.187 310.456 174.731 310.456ZM183.879 310.824L181.679 305.512C181.655 305.432 181.591 305.4 181.503 305.4H180.927C180.847 305.4 180.783 305.432 180.751 305.512L178.559 310.824C178.519 310.936 178.567 311 178.679 311H179.239C179.327 311 179.383 310.968 179.415 310.888L179.855 309.792H182.583L183.023 310.888C183.047 310.968 183.111 311 183.191 311H183.759C183.871 311 183.919 310.936 183.879 310.824ZM180.159 309.032L181.207 306.408H181.231L182.279 309.032H180.159ZM187.006 305.4H184.934C184.83 305.4 184.782 305.456 184.782 305.552V310.848C184.782 310.944 184.83 311 184.934 311H185.47C185.566 311 185.622 310.944 185.622 310.848V309.128H187.006C188.302 309.128 189.054 308.432 189.054 307.264C189.054 306.096 188.302 305.4 187.006 305.4ZM186.942 308.344H185.622V306.184H186.942C187.774 306.184 188.174 306.536 188.174 307.264C188.174 307.992 187.774 308.344 186.942 308.344ZM191.649 311H192.201C192.297 311 192.353 310.944 192.353 310.848V308.752L194.377 305.584C194.441 305.48 194.393 305.4 194.273 305.4H193.657C193.585 305.4 193.521 305.432 193.481 305.504L191.929 307.968H191.921L190.369 305.504C190.321 305.432 190.265 305.4 190.185 305.4H189.569C189.449 305.4 189.401 305.48 189.473 305.584L191.497 308.752V310.848C191.497 310.944 191.553 311 191.649 311Z" fill="#9BA8AF"/>
<g clip-path="url(#clip0_305_25230)">
<path d="M182.969 227.753C182.855 227.837 182.474 228.12 182.371 228.206L180.23 229.86C180.219 229.869 180.206 229.874 180.192 229.876C180.178 229.878 180.164 229.876 180.151 229.871L171.918 227.759C171.866 227.744 171.812 227.74 171.758 227.747C171.704 227.755 171.652 227.774 171.607 227.803L170.702 228.465L177.118 232.084C177.132 232.092 177.145 232.104 177.154 232.119C177.163 232.133 177.168 232.15 177.169 232.167C177.169 232.184 177.165 232.2 177.158 232.215C177.15 232.231 177.138 232.243 177.124 232.253L173.075 235.306C173.034 235.338 172.985 235.361 172.933 235.371C172.881 235.381 172.828 235.379 172.777 235.364L170.426 234.761C170.229 234.703 169.988 234.771 169.824 234.891L169.19 235.355C169.146 235.387 169.182 235.423 169.224 235.455L171.648 237.369C171.793 237.461 171.897 237.604 171.941 237.77L173.024 240.653C173.052 240.733 173.08 240.766 173.157 240.71L173.76 240.269C174.034 240.069 174.045 240.006 174.056 239.728L174.2 237.263C174.202 237.211 174.216 237.159 174.242 237.113C174.267 237.067 174.303 237.027 174.346 236.997L178.471 234.119C178.486 234.109 178.503 234.102 178.522 234.1C178.54 234.098 178.558 234.1 178.575 234.107C178.592 234.113 178.608 234.124 178.62 234.137C178.632 234.151 178.64 234.168 178.645 234.185L180.147 241.38L181.043 240.725C181.085 240.69 181.119 240.647 181.142 240.598C181.166 240.549 181.178 240.496 181.179 240.442L181.674 231.953C181.672 231.923 181.719 231.873 181.742 231.856L183.933 230.342C184.049 230.267 184.431 229.993 184.546 229.909C186.035 228.82 186.678 227.722 186.187 227.052C185.697 226.382 184.463 226.661 182.969 227.753Z" stroke="#374151" stroke-width="1.2" stroke-linecap="round" stroke-linejoin="round"/>
</g>
</g>
<g filter="url(#filter2_dd_305_25230)">
<rect x="249" y="211" width="120" height="140" rx="12" fill="white"/>
<path d="M332.5 256C332.5 269.255 321.755 280 308.5 280C295.245 280 284.5 269.255 284.5 256C284.5 242.745 295.245 232 308.5 232C321.755 232 332.5 242.745 332.5 256ZM289.3 256C289.3 266.604 297.896 275.2 308.5 275.2C319.104 275.2 327.7 266.604 327.7 256C327.7 245.396 319.104 236.8 308.5 236.8C297.896 236.8 289.3 245.396 289.3 256Z" fill="#F3F4F6"/>
<path d="M286.9 256C285.575 256 284.488 254.923 284.62 253.604C285.043 249.388 286.576 245.344 289.084 241.893C292.063 237.793 296.263 234.741 301.084 233.175C305.904 231.608 311.096 231.608 315.916 233.175C319.973 234.493 323.591 236.863 326.411 240.025C327.293 241.014 327.047 242.525 325.975 243.304C324.902 244.083 323.412 243.833 322.505 242.866C320.299 240.513 317.525 238.744 314.433 237.74C310.577 236.487 306.423 236.487 302.567 237.74C298.711 238.993 295.35 241.434 292.967 244.715C291.056 247.345 289.852 250.406 289.45 253.606C289.285 254.921 288.225 256 286.9 256Z" fill="#062638"/>
<path d="M284.246 292.6H283.07C282.938 292.6 282.854 292.684 282.854 292.816V296.176H279.05V292.816C279.05 292.684 278.966 292.6 278.834 292.6H277.658C277.526 292.6 277.442 292.684 277.442 292.816V300.784C277.442 300.916 277.526 301 277.658 301H278.834C278.966 301 279.05 300.916 279.05 300.784V297.688H282.854V300.784C282.854 300.916 282.938 301 283.07 301H284.246C284.378 301 284.462 300.916 284.462 300.784V292.816C284.462 292.684 284.378 292.6 284.246 292.6ZM289 301.144C290.788 301.144 292.072 299.848 292.072 298.144C292.072 296.44 290.788 295.144 289 295.144C287.212 295.144 285.904 296.44 285.904 298.144C285.904 299.848 287.212 301.144 289 301.144ZM289 299.776C288.052 299.776 287.452 299.08 287.452 298.144C287.452 297.208 288.052 296.524 289 296.524C289.936 296.524 290.536 297.208 290.536 298.144C290.536 299.08 289.936 299.776 289 299.776ZM298.597 295.288H297.505C297.373 295.288 297.301 295.372 297.301 295.504V298.36C297.301 299.236 296.773 299.764 295.945 299.764C295.189 299.764 294.793 299.308 294.793 298.384V295.504C294.793 295.372 294.709 295.288 294.577 295.288H293.485C293.353 295.288 293.281 295.372 293.281 295.504V298.756C293.281 300.256 294.085 301.144 295.453 301.144C296.305 301.144 296.977 300.796 297.289 300.184H297.325V300.784C297.325 300.916 297.409 301 297.541 301H298.597C298.729 301 298.813 300.916 298.813 300.784V295.504C298.813 295.372 298.729 295.288 298.597 295.288ZM302.64 301.144C304.272 301.144 305.184 300.448 305.184 299.296C305.184 298.312 304.572 297.76 303.396 297.604L302.508 297.484C301.764 297.388 301.548 297.208 301.548 296.92C301.548 296.536 301.872 296.284 302.58 296.284C303.168 296.284 303.528 296.488 303.636 296.872C303.672 297.004 303.732 297.064 303.864 297.064H304.92C305.052 297.064 305.136 296.98 305.112 296.836C304.944 295.732 304.116 295.144 302.592 295.144C300.9 295.144 300.06 295.888 300.06 296.944C300.06 297.844 300.636 298.456 301.86 298.612L302.76 298.732C303.468 298.828 303.696 298.996 303.696 299.356C303.696 299.776 303.348 300.016 302.652 300.016C302.076 300.016 301.692 299.812 301.572 299.488C301.524 299.368 301.464 299.296 301.344 299.296H300.264C300.12 299.296 300.024 299.392 300.06 299.524C300.24 300.532 301.092 301.144 302.64 301.144ZM309.166 295.144C307.366 295.144 306.13 296.416 306.13 298.156C306.13 299.896 307.342 301.144 309.202 301.144C310.678 301.144 311.662 300.376 311.974 299.368C312.01 299.26 311.914 299.188 311.77 299.188H310.762C310.642 299.188 310.57 299.248 310.51 299.356C310.33 299.704 309.862 299.944 309.226 299.944C308.326 299.944 307.774 299.5 307.642 298.588H311.842C312.01 298.588 312.13 298.504 312.13 298.288V298.132C312.13 296.344 310.906 295.144 309.166 295.144ZM309.166 296.332C309.958 296.332 310.462 296.716 310.606 297.592H307.666C307.822 296.752 308.362 296.332 309.166 296.332ZM319.85 295.204C319.754 295.192 319.646 295.18 319.526 295.18C318.77 295.18 318.098 295.564 317.786 296.32H317.762V295.504C317.762 295.372 317.678 295.288 317.546 295.288H316.49C316.358 295.288 316.286 295.372 316.286 295.504V300.784C316.286 300.916 316.358 301 316.49 301H317.582C317.714 301 317.798 300.916 317.798 300.784V298.636C317.798 297.256 318.398 296.632 319.454 296.632C319.574 296.632 319.694 296.632 319.802 296.644C319.946 296.656 320.03 296.596 320.03 296.452V295.444C320.03 295.336 319.982 295.24 319.85 295.204ZM323.674 295.144C321.874 295.144 320.638 296.416 320.638 298.156C320.638 299.896 321.85 301.144 323.71 301.144C325.186 301.144 326.17 300.376 326.482 299.368C326.518 299.26 326.422 299.188 326.278 299.188H325.27C325.15 299.188 325.078 299.248 325.018 299.356C324.838 299.704 324.37 299.944 323.734 299.944C322.834 299.944 322.282 299.5 322.15 298.588H326.35C326.518 298.588 326.638 298.504 326.638 298.288V298.132C326.638 296.344 325.414 295.144 323.674 295.144ZM323.674 296.332C324.466 296.332 324.97 296.716 325.114 297.592H322.174C322.33 296.752 322.87 296.332 323.674 296.332ZM331.271 295.144C330.419 295.144 329.747 295.492 329.423 296.104H329.387V295.504C329.387 295.372 329.315 295.288 329.183 295.288H328.115C327.983 295.288 327.911 295.372 327.911 295.504V300.784C327.911 300.916 327.983 301 328.115 301H329.207C329.339 301 329.423 300.916 329.423 300.784V297.94C329.423 297.052 329.939 296.536 330.767 296.536C331.547 296.536 331.967 296.98 331.967 297.916V300.784C331.967 300.916 332.039 301 332.183 301H333.263C333.395 301 333.479 300.916 333.479 300.784V297.532C333.479 296.032 332.639 295.144 331.271 295.144ZM338.913 299.632C338.661 299.74 338.409 299.776 338.133 299.776C337.401 299.776 337.089 299.488 337.089 298.708V296.596H338.889C339.021 296.596 339.105 296.512 339.105 296.38V295.504C339.105 295.372 339.021 295.288 338.889 295.288H337.089V293.92C337.089 293.788 337.005 293.704 336.873 293.704H335.781C335.649 293.704 335.577 293.788 335.577 293.92V295.288H334.581C334.449 295.288 334.365 295.372 334.365 295.504V296.38C334.365 296.512 334.449 296.596 334.581 296.596H335.577V298.876C335.577 300.436 336.345 301.144 337.821 301.144C338.265 301.144 338.649 301.084 339.009 300.928C339.105 300.88 339.153 300.808 339.153 300.7V299.788C339.153 299.632 339.057 299.572 338.913 299.632Z" fill="black"/>
<path d="M295.24 318.252C295.24 317.148 294.592 316.464 293.224 316.224L292.888 316.164V314.436C293.332 314.532 293.572 314.772 293.644 315.18C293.668 315.312 293.728 315.372 293.86 315.372H294.928C295.06 315.372 295.144 315.3 295.12 315.156C295.012 314.052 294.292 313.332 293.02 313.164V312.54C293.02 312.408 292.936 312.324 292.804 312.324H292.012C291.88 312.324 291.808 312.408 291.808 312.54V313.14C290.368 313.308 289.612 314.112 289.612 315.24C289.612 316.284 290.248 317.016 291.76 317.268L291.928 317.304V319.152C291.472 319.056 291.196 318.816 291.1 318.42C291.064 318.3 290.992 318.228 290.86 318.228H289.792C289.66 318.228 289.576 318.312 289.6 318.456C289.744 319.536 290.5 320.256 291.808 320.436V321.06C291.808 321.192 291.88 321.276 292.012 321.276H292.804C292.936 321.276 293.02 321.192 293.02 321.06V320.436C294.424 320.28 295.24 319.512 295.24 318.252ZM291.088 315.228C291.088 314.784 291.34 314.508 291.928 314.412V315.984C291.316 315.816 291.088 315.612 291.088 315.228ZM292.888 319.164V317.484C293.476 317.628 293.764 317.904 293.764 318.324C293.764 318.78 293.476 319.068 292.888 319.164ZM302.118 319.56H298.086C298.182 318.96 298.53 318.6 299.466 318.096L300.414 317.616C301.806 316.884 302.37 316.068 302.37 314.988C302.37 313.452 301.254 312.456 299.514 312.456C297.726 312.456 296.598 313.488 296.49 315.156C296.478 315.312 296.574 315.384 296.706 315.384H297.894C298.014 315.384 298.086 315.312 298.098 315.168C298.194 314.376 298.722 313.896 299.538 313.896C300.33 313.896 300.786 314.328 300.786 314.988C300.786 315.564 300.426 316.032 299.538 316.512L298.59 316.992C296.97 317.844 296.454 318.72 296.454 320.34V320.784C296.454 320.916 296.526 321 296.67 321H302.118C302.262 321 302.334 320.916 302.334 320.784V319.776C302.334 319.644 302.262 319.56 302.118 319.56ZM303.663 322.848H304.443C304.575 322.848 304.647 322.776 304.671 322.656L305.535 319.404C305.571 319.26 305.499 319.176 305.355 319.176H304.275C304.155 319.176 304.071 319.236 304.059 319.368L303.471 322.608C303.447 322.752 303.519 322.848 303.663 322.848ZM312.095 313.308C311.543 312.756 310.775 312.456 309.839 312.456C307.931 312.456 306.707 313.668 306.707 315.324C306.707 316.956 307.895 318.132 309.551 318.132C310.367 318.132 311.087 317.82 311.519 317.256H311.543C311.423 319.032 310.775 319.752 309.683 319.752C309.011 319.752 308.591 319.476 308.447 319.032C308.399 318.912 308.327 318.852 308.207 318.852H307.055C306.911 318.852 306.827 318.936 306.863 319.08C307.115 320.388 308.135 321.144 309.671 321.144C311.879 321.144 313.115 319.536 313.115 316.608C313.115 315.012 312.767 313.98 312.095 313.308ZM309.827 316.824C308.891 316.824 308.279 316.236 308.279 315.336C308.279 314.436 308.903 313.824 309.839 313.824C310.775 313.824 311.411 314.424 311.411 315.312C311.411 316.224 310.775 316.824 309.827 316.824ZM317.771 321.144C319.871 321.144 321.239 319.536 321.239 316.8C321.239 314.064 319.871 312.456 317.771 312.456C315.683 312.456 314.315 314.064 314.315 316.8C314.315 319.536 315.683 321.144 317.771 321.144ZM317.771 319.692C316.607 319.692 315.923 318.756 315.923 316.8C315.923 314.844 316.607 313.908 317.771 313.908C318.935 313.908 319.631 314.844 319.631 316.8C319.631 318.756 318.935 319.692 317.771 319.692ZM325.818 315.384C325.218 315.384 324.666 315.528 324.21 315.804L324.426 314.016H327.99C328.122 314.016 328.206 313.944 328.206 313.812V312.816C328.206 312.684 328.122 312.6 327.99 312.6H323.37C323.238 312.6 323.166 312.66 323.142 312.804L322.578 317.196C322.566 317.352 322.638 317.424 322.782 317.424H324.006C324.114 317.424 324.186 317.376 324.258 317.292C324.57 316.932 325.074 316.704 325.65 316.704C326.538 316.704 327.102 317.268 327.102 318.156C327.102 319.08 326.478 319.716 325.542 319.716C324.774 319.716 324.198 319.296 324.054 318.708C324.018 318.576 323.958 318.516 323.826 318.516H322.674C322.53 318.516 322.458 318.6 322.47 318.732C322.626 320.196 323.85 321.144 325.53 321.144C327.426 321.144 328.686 319.932 328.686 318.18C328.686 316.488 327.486 315.384 325.818 315.384Z" fill="#062638"/>
<g clip-path="url(#clip1_305_25230)">
<path d="M301.159 254.437V264.117C301.159 264.291 301.228 264.458 301.351 264.581C301.474 264.704 301.641 264.773 301.815 264.773H305.753V259.195C305.753 258.934 305.856 258.684 306.041 258.499C306.225 258.314 306.476 258.211 306.737 258.211H310.018C310.279 258.211 310.53 258.314 310.714 258.499C310.899 258.684 311.003 258.934 311.003 259.195V264.773H314.94C315.114 264.773 315.281 264.704 315.404 264.581C315.527 264.458 315.596 264.291 315.596 264.117V254.437" stroke="black" stroke-width="1.2" stroke-linecap="round" stroke-linejoin="round"/>
<path d="M317.565 256.242L308.824 247.875C308.619 247.658 308.14 247.656 307.931 247.875L299.19 256.242M314.284 253.084V248.367H312.315V251.197" stroke="black" stroke-width="1.2" stroke-linecap="round" stroke-linejoin="round"/>
</g>
<path d="M293.677 329.4H293.229C293.165 329.4 293.101 329.416 293.037 329.456L291.901 330.112C291.829 330.144 291.797 330.208 291.797 330.288V330.792C291.797 330.912 291.877 330.96 291.981 330.896L293.005 330.312V334.848C293.005 334.944 293.053 335 293.157 335H293.677C293.773 335 293.829 334.944 293.829 334.848V329.552C293.829 329.456 293.773 329.4 293.677 329.4ZM299.13 333.056H298.514V329.552C298.514 329.456 298.458 329.4 298.362 329.4H297.706C297.626 329.4 297.57 329.424 297.522 329.488L294.89 333.032C294.85 333.096 294.834 333.144 294.834 333.224V333.64C294.834 333.736 294.89 333.792 294.986 333.792H297.714V334.848C297.714 334.944 297.77 335 297.866 335H298.362C298.458 335 298.514 334.944 298.514 334.848V333.792H299.13C299.234 333.792 299.282 333.736 299.282 333.64V333.208C299.282 333.112 299.234 333.056 299.13 333.056ZM295.746 333.056L297.698 330.424H297.714V333.056H295.746ZM301.26 332.2C302.076 332.2 302.708 331.576 302.708 330.752C302.708 329.936 302.076 329.312 301.26 329.312C300.444 329.312 299.82 329.936 299.82 330.752C299.82 331.576 300.444 332.2 301.26 332.2ZM300.964 335H301.396C301.476 335 301.532 334.968 301.58 334.904L305.084 329.584C305.156 329.48 305.108 329.4 304.988 329.4H304.556C304.476 329.4 304.42 329.432 304.372 329.496L300.86 334.816C300.796 334.92 300.844 335 300.964 335ZM301.26 331.568C300.804 331.568 300.492 331.248 300.492 330.752C300.492 330.264 300.804 329.944 301.26 329.944C301.724 329.944 302.028 330.264 302.028 330.752C302.028 331.248 301.724 331.568 301.26 331.568ZM304.692 335.088C305.508 335.088 306.132 334.464 306.132 333.648C306.132 332.824 305.508 332.2 304.692 332.2C303.868 332.2 303.244 332.824 303.244 333.648C303.244 334.464 303.868 335.088 304.692 335.088ZM304.692 334.456C304.228 334.456 303.924 334.136 303.924 333.648C303.924 333.152 304.228 332.832 304.692 332.832C305.148 332.832 305.46 333.152 305.46 333.648C305.46 334.136 305.148 334.456 304.692 334.456ZM313.84 334.824L311.64 329.512C311.616 329.432 311.552 329.4 311.464 329.4H310.888C310.808 329.4 310.744 329.432 310.712 329.512L308.52 334.824C308.48 334.936 308.528 335 308.64 335H309.2C309.288 335 309.344 334.968 309.376 334.888L309.816 333.792H312.544L312.984 334.888C313.008 334.968 313.072 335 313.152 335H313.72C313.832 335 313.88 334.936 313.84 334.824ZM310.12 333.032L311.168 330.408H311.192L312.24 333.032H310.12ZM316.967 329.4H314.895C314.791 329.4 314.743 329.456 314.743 329.552V334.848C314.743 334.944 314.791 335 314.895 335H315.431C315.527 335 315.583 334.944 315.583 334.848V333.128H316.967C318.263 333.128 319.015 332.432 319.015 331.264C319.015 330.096 318.263 329.4 316.967 329.4ZM316.903 332.344H315.583V330.184H316.903C317.735 330.184 318.135 330.536 318.135 331.264C318.135 331.992 317.735 332.344 316.903 332.344ZM321.61 335H322.162C322.258 335 322.314 334.944 322.314 334.848V332.752L324.338 329.584C324.402 329.48 324.354 329.4 324.234 329.4H323.618C323.546 329.4 323.482 329.432 323.442 329.504L321.89 331.968H321.882L320.33 329.504C320.282 329.432 320.226 329.4 320.146 329.4H319.53C319.41 329.4 319.362 329.48 319.434 329.584L321.458 332.752V334.848C321.458 334.944 321.514 335 321.61 335Z" fill="#9BA8AF"/>
</g>
</g>
<defs>
<filter id="filter0_d_305_25230" x="112" y="66" width="269" height="391" filterUnits="userSpaceOnUse" color-interpolation-filters="sRGB">
<feFlood flood-opacity="0" result="BackgroundImageFix"/>
<feColorMatrix in="SourceAlpha" type="matrix" values="0 0 0 0 0 0 0 0 0 0 0 0 0 0 0 0 0 0 127 0" result="hardAlpha"/>
<feMorphology radius="12" operator="erode" in="SourceAlpha" result="effect1_dropShadow_305_25230"/>
<feOffset dy="25"/>
<feGaussianBlur stdDeviation="25"/>
<feColorMatrix type="matrix" values="0 0 0 0 0.0625882 0 0 0 0 0.0926346 0 0 0 0 0.15702 0 0 0 0.25 0"/>
<feBlend mode="normal" in2="BackgroundImageFix" result="effect1_dropShadow_305_25230"/>
<feBlend mode="normal" in="SourceGraphic" in2="effect1_dropShadow_305_25230" result="shape"/>
</filter>
<filter id="filter1_dd_305_25230" x="99" y="171" width="160" height="180" filterUnits="userSpaceOnUse" color-interpolation-filters="sRGB">
<feFlood flood-opacity="0" result="BackgroundImageFix"/>
<feColorMatrix in="SourceAlpha" type="matrix" values="0 0 0 0 0 0 0 0 0 0 0 0 0 0 0 0 0 0 127 0" result="hardAlpha"/>
<feOffset dy="4"/>
<feGaussianBlur stdDeviation="10"/>
<feComposite in2="hardAlpha" operator="out"/>
<feColorMatrix type="matrix" values="0 0 0 0 0.196078 0 0 0 0 0.196078 0 0 0 0 0.278431 0 0 0 0.08 0"/>
<feBlend mode="normal" in2="BackgroundImageFix" result="effect1_dropShadow_305_25230"/>
<feColorMatrix in="SourceAlpha" type="matrix" values="0 0 0 0 0 0 0 0 0 0 0 0 0 0 0 0 0 0 127 0" result="hardAlpha"/>
<feOffset/>
<feGaussianBlur stdDeviation="0.5"/>
<feComposite in2="hardAlpha" operator="out"/>
<feColorMatrix type="matrix" values="0 0 0 0 0.0470588 0 0 0 0 0.101961 0 0 0 0 0.294118 0 0 0 0.1 0"/>
<feBlend mode="normal" in2="effect1_dropShadow_305_25230" result="effect2_dropShadow_305_25230"/>
<feBlend mode="normal" in="SourceGraphic" in2="effect2_dropShadow_305_25230" result="shape"/>
</filter>
<filter id="filter2_dd_305_25230" x="229" y="195" width="160" height="180" filterUnits="userSpaceOnUse" color-interpolation-filters="sRGB">
<feFlood flood-opacity="0" result="BackgroundImageFix"/>
<feColorMatrix in="SourceAlpha" type="matrix" values="0 0 0 0 0 0 0 0 0 0 0 0 0 0 0 0 0 0 127 0" result="hardAlpha"/>
<feOffset dy="4"/>
<feGaussianBlur stdDeviation="10"/>
<feComposite in2="hardAlpha" operator="out"/>
<feColorMatrix type="matrix" values="0 0 0 0 0.196078 0 0 0 0 0.196078 0 0 0 0 0.278431 0 0 0 0.08 0"/>
<feBlend mode="normal" in2="BackgroundImageFix" result="effect1_dropShadow_305_25230"/>
<feColorMatrix in="SourceAlpha" type="matrix" values="0 0 0 0 0 0 0 0 0 0 0 0 0 0 0 0 0 0 127 0" result="hardAlpha"/>
<feOffset/>
<feGaussianBlur stdDeviation="0.5"/>
<feComposite in2="hardAlpha" operator="out"/>
<feColorMatrix type="matrix" values="0 0 0 0 0.0470588 0 0 0 0 0.101961 0 0 0 0 0.294118 0 0 0 0.1 0"/>
<feBlend mode="normal" in2="effect1_dropShadow_305_25230" result="effect2_dropShadow_305_25230"/>
<feBlend mode="normal" in="SourceGraphic" in2="effect2_dropShadow_305_25230" result="shape"/>
</filter>
<clipPath id="clip0_305_25230">
<rect width="21" height="18" fill="white" transform="translate(165 231.396) rotate(-36.1772)"/>
</clipPath>
<clipPath id="clip1_305_25230">
<rect width="21" height="21" fill="white" transform="translate(297.878 245.742)"/>
</clipPath>
</defs>
</svg>
