<svg width="153" height="40" viewBox="0 0 153 40" fill="none" xmlns="http://www.w3.org/2000/svg">
<path d="M63.2615 33.316C68.8752 33.316 72.5363 29.4806 72.5363 23.4136C72.5363 17.3118 68.8404 13.5461 63.4359 13.5461C61.4484 13.5461 58.9728 14.1388 57.2992 15.7776V6.53766H53.2545V32.9325H57.2643V30.945C58.8682 32.8279 61.3089 33.316 63.2615 33.316ZM62.4596 29.6549C60.507 29.6549 58.3801 28.853 57.2643 26.8655V19.9268C58.4149 18.1835 60.5767 17.2072 62.5642 17.2072C65.9115 17.2072 68.2476 19.4736 68.2476 23.3787C68.2476 27.2839 65.9812 29.6549 62.4596 29.6549Z" fill="#182327"/>
<path d="M76.3415 32.9325H80.4559V23.7972C80.4559 19.8222 82.6875 17.7302 85.5117 17.7302C86.2788 17.7302 87.0808 17.8696 87.9525 18.1835V13.7901C87.5341 13.6158 86.9413 13.5461 86.3486 13.5461C83.6289 13.5461 81.6066 14.8013 80.3513 16.5795V13.9645H76.3415V32.9325Z" fill="#182327"/>
<path d="M98.9047 33.316C100.857 33.316 103.298 32.8279 104.902 30.945V32.9325H108.947V13.9645H104.832V15.7776C103.228 14.1388 100.718 13.5461 98.7304 13.5461C93.3259 13.5461 89.6299 17.3118 89.6299 23.4136C89.6299 29.4806 93.291 33.316 98.9047 33.316ZM99.7067 29.6549C96.1851 29.6549 93.9187 27.2839 93.9187 23.3787C93.9187 19.4736 96.2548 17.2072 99.5672 17.2072C101.59 17.2072 103.751 18.1835 104.902 19.9268V26.8655C103.786 28.853 101.659 29.6549 99.7067 29.6549Z" fill="#182327"/>
<path d="M122.76 33.2812C126.387 33.2812 129.35 31.8516 131.059 29.62L128.2 27.0398C127.154 28.4346 125.271 29.5852 122.9 29.5852C119.239 29.5852 116.868 27.1793 116.868 23.3787C116.868 19.6828 119.274 17.3118 122.97 17.3118C125.097 17.3118 127.014 18.3578 128.06 19.8222L130.919 17.242C129.246 15.0105 126.317 13.5809 122.83 13.5809C116.519 13.5809 112.614 17.5907 112.614 23.4136C112.614 29.4108 116.38 33.2812 122.76 33.2812Z" fill="#182327"/>
<path d="M152.946 23.4833C152.946 17.6256 149.668 13.4763 143.183 13.4763C137.429 13.4763 133.385 17.3815 133.385 23.3787C133.385 29.4108 137.22 33.316 143.462 33.316C147.715 33.316 150.505 31.8167 152.248 29.4457L149.563 27.2142C148.204 28.9227 146.146 29.8293 143.74 29.8293C140.323 29.8293 138.092 27.9115 137.604 24.6688H152.911C152.946 24.3202 152.946 23.7623 152.946 23.4833ZM143.183 16.9282C146.774 16.9282 148.517 18.9854 148.796 21.5656H137.639C138.231 18.4973 140.428 16.9282 143.183 16.9282Z" fill="#182327"/>
<path d="M0 9.27902C0 6.47125 0 3.66377 0 0.856579C0 0 0 0 0.873085 0C5.89557 0.00810825 10.9172 0.0162165 15.9379 0.0243248C16.6173 0.0243248 17.2975 -0.00347496 17.9769 0.00868741C18.4868 0.0173748 18.5676 0.11728 18.5685 0.637656C18.5685 2.43305 18.5685 4.22845 18.5685 6.02385C18.5685 9.98879 18.5685 13.954 18.5685 17.9195C18.5685 18.5033 18.4668 18.6084 17.8987 18.6084H0.792292C0.053862 18.6084 0.000868741 18.5554 0.000868741 17.8309L0 9.27902Z" fill="#2DA833"/>
<path d="M30.7535 18.6084H22.4188C21.55 18.6084 21.4684 18.5354 21.4805 17.6745C21.5587 12.277 21.5023 6.88041 21.5231 1.48379C21.5231 1.1528 21.4501 0.828755 21.5066 0.489945C21.5561 0.196311 21.6803 0.088587 21.9618 0.110306C22.839 0.187543 23.7085 0.335125 24.562 0.551626C30.909 2.09799 35.4299 5.89091 38.2542 11.741C39.1768 13.6522 39.6702 15.6964 39.9413 17.7953C40.0282 18.4963 39.9317 18.6058 39.2185 18.6067H30.7535V18.6084Z" fill="#2DA833"/>
<path d="M9.30849 21.5448C12.1736 21.5448 15.039 21.5448 17.9047 21.5448C18.5276 21.5448 18.5649 21.5812 18.5658 22.2093C18.5658 27.9396 18.5658 33.6698 18.5658 39.4C18.5658 39.9725 18.5085 40.0437 17.9386 39.9812C15.1221 39.671 12.4707 38.8318 10.0243 37.4002C5.34443 34.6575 2.28993 30.6457 0.761818 25.4541C0.430827 24.3299 0.240573 23.1806 0.092887 22.0208C0.039025 21.603 0.229279 21.5361 0.582857 21.5369C3.4914 21.5448 6.39995 21.5448 9.30849 21.5448Z" fill="#2DA833"/>
<path d="M21.5213 39.1802C21.5213 33.7552 21.5213 28.3299 21.5213 22.9043C21.5213 22.5733 21.4344 22.2476 21.51 21.9105C21.5621 21.6716 21.6707 21.5534 21.9131 21.5526C22.1555 21.5517 22.4048 21.5413 22.6507 21.5413L39.1455 21.5369H39.2758C39.9334 21.5465 40.0194 21.6238 39.9421 22.2675C39.5129 25.8198 38.2759 29.055 36.1327 31.9332C32.7515 36.4741 28.2402 39.0933 22.6559 39.9047C22.556 39.9195 22.4587 39.9516 22.3588 39.9655C21.5899 40.0724 21.4709 39.9621 21.5213 39.1802Z" fill="#2DA833"/>
</svg>
