<svg width="90" height="24" viewBox="0 0 90 24" fill="none" xmlns="http://www.w3.org/2000/svg">
<path d="M37.226 19.6043C40.5293 19.6043 42.6837 17.3473 42.6837 13.7772C42.6837 10.1866 40.5088 7.97074 37.3286 7.97074C36.1591 7.97074 34.7023 8.31954 33.7175 9.28387V3.84668H31.3374V19.3786H33.6969V18.2091C34.6408 19.317 36.077 19.6043 37.226 19.6043ZM36.7541 17.4499C35.6051 17.4499 34.3535 16.978 33.6969 15.8085V11.7255C34.374 10.6996 35.6461 10.1251 36.8156 10.1251C38.7853 10.1251 40.16 11.4587 40.16 13.7567C40.16 16.0547 38.8264 17.4499 36.7541 17.4499Z" fill="#182327"/>
<path d="M44.9228 19.3786H47.3439V14.0029C47.3439 11.6639 48.6571 10.4329 50.319 10.4329C50.7704 10.4329 51.2423 10.5149 51.7552 10.6996V8.11436C51.509 8.01177 51.1602 7.97074 50.8114 7.97074C49.211 7.97074 48.021 8.70937 47.2824 9.75577V8.21695H44.9228V19.3786Z" fill="#182327"/>
<path d="M58.2 19.6043C59.349 19.6043 60.7853 19.317 61.7291 18.2091V19.3786H64.1091V8.21695H61.688V9.28387C60.7442 8.31954 59.267 7.97074 58.0974 7.97074C54.9172 7.97074 52.7423 10.1866 52.7423 13.7772C52.7423 17.3473 54.8967 19.6043 58.2 19.6043ZM58.6719 17.4499C56.5997 17.4499 55.266 16.0547 55.266 13.7567C55.266 11.4587 56.6407 10.1251 58.5899 10.1251C59.7799 10.1251 61.052 10.6996 61.7291 11.7255V15.8085C61.0725 16.978 59.8209 17.4499 58.6719 17.4499Z" fill="#182327"/>
<path d="M72.2378 19.5837C74.3717 19.5837 76.1157 18.7425 77.121 17.4294L75.4386 15.9111C74.823 16.7318 73.7151 17.4089 72.3199 17.4089C70.1655 17.4089 68.7703 15.9932 68.7703 13.7567C68.7703 11.5818 70.186 10.1866 72.3609 10.1866C73.6125 10.1866 74.741 10.8022 75.3565 11.6639L77.039 10.1456C76.0541 8.83248 74.3306 7.99125 72.2789 7.99125C68.5652 7.99125 66.2672 10.3508 66.2672 13.7772C66.2672 17.3063 68.4831 19.5837 72.2378 19.5837Z" fill="#182327"/>
<path d="M90 13.8183C90 10.3713 88.0714 7.9297 84.2551 7.9297C80.8697 7.9297 78.4896 10.2277 78.4896 13.7567C78.4896 17.3063 80.7466 19.6043 84.4192 19.6043C86.9224 19.6043 88.5638 18.722 89.5897 17.3268L88.0098 16.0137C87.2096 17.019 85.9991 17.5525 84.5834 17.5525C82.5726 17.5525 81.2595 16.424 80.9723 14.5159H89.9795C90 14.3107 90 13.9824 90 13.8183ZM84.2551 9.96095C86.3684 9.96095 87.3943 11.1715 87.5584 12.6898H80.9928C81.3416 10.8842 82.6342 9.96095 84.2551 9.96095Z" fill="#182327"/>
<path d="M0 5.46019C0 3.80797 0 2.15593 0 0.504049C0 0 0 0 0.513762 0C3.46922 0.00477126 6.42416 0.00954252 9.37859 0.0143138C9.77835 0.0143138 10.1786 -0.00204482 10.5784 0.00511206C10.8785 0.0102241 10.926 0.0690129 10.9265 0.375225C10.9265 1.43172 10.9265 2.48821 10.9265 3.5447C10.9265 5.87785 10.9265 8.21116 10.9265 10.5447C10.9265 10.8882 10.8667 10.95 10.5324 10.95H0.46622C0.0316948 10.95 0.000511206 10.9189 0.000511206 10.4925L0 5.46019Z" fill="#2DA833"/>
<path d="M18.0968 10.9497H13.1922C12.681 10.9497 12.633 10.9068 12.6401 10.4001C12.6861 7.22402 12.6529 4.04841 12.6652 0.872795C12.6652 0.678025 12.6222 0.487345 12.6555 0.287975C12.6846 0.115187 12.7577 0.0517973 12.9233 0.0645774C13.4395 0.110028 13.9512 0.196871 14.4534 0.32427C18.1883 1.23422 20.8486 3.46614 22.5105 6.90861C23.0534 8.03326 23.3438 9.23613 23.5033 10.4712C23.5544 10.8837 23.4977 10.9482 23.078 10.9487H18.0968V10.9497Z" fill="#2DA833"/>
<path d="M5.4775 12.6779C7.16346 12.6779 8.84959 12.6779 10.5359 12.6779C10.9024 12.6779 10.9244 12.6994 10.9249 13.069C10.9249 16.4409 10.9249 19.8129 10.9249 23.1848C10.9249 23.5217 10.8912 23.5636 10.5558 23.5268C8.8985 23.3443 7.33829 22.8504 5.89874 22.008C3.14487 20.3941 1.34747 18.0333 0.448256 14.9784C0.253486 14.3169 0.141532 13.6405 0.0546269 12.9581C0.0229321 12.7122 0.134886 12.6728 0.342947 12.6733C2.05447 12.6779 3.76598 12.6779 5.4775 12.6779Z" fill="#2DA833"/>
<path d="M12.6641 23.0554C12.6641 19.8631 12.6641 16.6706 12.6641 13.478C12.6641 13.2832 12.613 13.0915 12.6575 12.8932C12.6881 12.7526 12.752 12.6831 12.8947 12.6825C13.0373 12.682 13.184 12.6759 13.3287 12.6759L23.0349 12.6733H23.1116C23.4986 12.679 23.5492 12.7245 23.5037 13.1033C23.2512 15.1936 22.5232 17.0973 21.2621 18.7909C19.2725 21.463 16.6178 23.0043 13.3317 23.4818C13.273 23.4905 13.2157 23.5094 13.1569 23.5176C12.7045 23.5804 12.6345 23.5155 12.6641 23.0554Z" fill="#2DA833"/>
</svg>
